<?xml version="1.0" encoding="utf-8"?>
<!-- Generator: Adobe Illustrator 25.4.1, SVG Export Plug-In . SVG Version: 6.00 Build 0)  -->
<svg version="1.1" id="Layer_1" xmlns="http://www.w3.org/2000/svg" xmlns:xlink="http://www.w3.org/1999/xlink" x="0px" y="0px"
	 viewBox="0 0 456.5 456.5" style="enable-background:new 0 0 456.5 456.5;" xml:space="preserve">
<style type="text/css">
	.st0{display:none;}
	.st1{display:inline;fill:none;stroke:#333;stroke-width:0.5;stroke-linecap:round;stroke-linejoin:round;stroke-miterlimit:10;}
	.st2{display:inline;stroke:#333;stroke-width:0.5;stroke-linecap:round;stroke-linejoin:round;stroke-miterlimit:10;}
</style>
<g class="st0">
	<line class="st1" x1="38.3" y1="0.2" x2="38.3" y2="456.2"/>
	<line class="st1" x1="76.3" y1="0.2" x2="76.3" y2="456.2"/>
	<line class="st1" x1="0.3" y1="0.2" x2="0.3" y2="456.2"/>
	<line class="st1" x1="19.3" y1="0.2" x2="19.3" y2="456.2"/>
	<line class="st1" x1="38.3" y1="0.2" x2="38.3" y2="456.2"/>
	<line class="st1" x1="57.3" y1="0.2" x2="57.3" y2="456.2"/>
	<line class="st1" x1="76.3" y1="0.2" x2="76.3" y2="456.2"/>
	<line class="st1" x1="95.3" y1="0.2" x2="95.3" y2="456.2"/>
	<line class="st1" x1="114.3" y1="0.2" x2="114.3" y2="456.2"/>
	<line class="st1" x1="133.3" y1="0.2" x2="133.3" y2="456.2"/>
	<line class="st1" x1="152.3" y1="0.2" x2="152.3" y2="456.2"/>
	<line class="st1" x1="171.3" y1="0.2" x2="171.3" y2="456.2"/>
	<line class="st1" x1="190.3" y1="0.2" x2="190.3" y2="456.2"/>
	<line class="st1" x1="209.3" y1="0.2" x2="209.3" y2="456.2"/>
	<line class="st1" x1="228.2" y1="0.2" x2="228.2" y2="456.2"/>
	<line class="st1" x1="247.2" y1="0.2" x2="247.2" y2="456.2"/>
	<line class="st1" x1="266.2" y1="0.2" x2="266.2" y2="456.2"/>
	<line class="st1" x1="285.2" y1="0.2" x2="285.2" y2="456.2"/>
	<line class="st1" x1="304.2" y1="0.2" x2="304.2" y2="456.2"/>
	<line class="st1" x1="323.2" y1="0.2" x2="323.2" y2="456.2"/>
	<line class="st1" x1="342.2" y1="0.2" x2="342.2" y2="456.2"/>
	<line class="st1" x1="361.2" y1="0.2" x2="361.2" y2="456.2"/>
	<line class="st1" x1="380.2" y1="0.2" x2="380.2" y2="456.2"/>
	<line class="st1" x1="399.2" y1="0.2" x2="399.2" y2="456.2"/>
	<line class="st1" x1="418.2" y1="0.2" x2="418.2" y2="456.2"/>
	<line class="st1" x1="437.2" y1="0.2" x2="437.2" y2="456.2"/>
	<line class="st1" x1="114.3" y1="0.2" x2="114.3" y2="456.2"/>
	<line class="st1" x1="152.3" y1="0.2" x2="152.3" y2="456.2"/>
	<line class="st1" x1="190.3" y1="0.2" x2="190.3" y2="456.2"/>
	<line class="st1" x1="228.2" y1="0.2" x2="228.2" y2="456.2"/>
	<line class="st1" x1="266.2" y1="0.2" x2="266.2" y2="456.2"/>
	<line class="st1" x1="304.2" y1="0.2" x2="304.2" y2="456.2"/>
	<line class="st1" x1="342.2" y1="0.2" x2="342.2" y2="456.2"/>
	<line class="st1" x1="380.2" y1="0.2" x2="380.2" y2="456.2"/>
	<line class="st1" x1="418.2" y1="0.2" x2="418.2" y2="456.2"/>
	<line class="st1" x1="456.2" y1="0.2" x2="456.2" y2="456.2"/>
	<line class="st1" x1="0.3" y1="76.2" x2="456.2" y2="76.2"/>
	<line class="st1" x1="0.3" y1="0.2" x2="456.2" y2="0.2"/>
	<line class="st1" x1="0.3" y1="19.2" x2="456.2" y2="19.2"/>
	<line class="st1" x1="0.3" y1="38.2" x2="456.2" y2="38.2"/>
	<line class="st1" x1="0.3" y1="57.2" x2="456.2" y2="57.2"/>
	<line class="st1" x1="0.3" y1="76.2" x2="456.2" y2="76.2"/>
	<line class="st1" x1="0.3" y1="95.3" x2="456.2" y2="95.3"/>
	<line class="st1" x1="0.3" y1="114.3" x2="456.2" y2="114.3"/>
	<line class="st1" x1="0.3" y1="133.2" x2="456.2" y2="133.2"/>
	<line class="st1" x1="0.3" y1="152.2" x2="456.2" y2="152.2"/>
	<line class="st1" x1="0.3" y1="171.2" x2="456.2" y2="171.2"/>
	<line class="st1" x1="0.3" y1="190.2" x2="456.2" y2="190.2"/>
	<line class="st1" x1="0.3" y1="209.2" x2="456.2" y2="209.2"/>
	<line class="st1" x1="0.3" y1="228.2" x2="456.2" y2="228.2"/>
	<line class="st1" x1="0.3" y1="247.2" x2="456.2" y2="247.2"/>
	<line class="st1" x1="0.3" y1="266.2" x2="456.2" y2="266.2"/>
	<line class="st1" x1="0.3" y1="285.2" x2="456.2" y2="285.2"/>
	<line class="st1" x1="0.3" y1="304.2" x2="456.2" y2="304.2"/>
	<line class="st1" x1="0.3" y1="323.2" x2="456.2" y2="323.2"/>
	<line class="st1" x1="0.3" y1="342.2" x2="456.2" y2="342.2"/>
	<line class="st1" x1="0.3" y1="361.2" x2="456.2" y2="361.2"/>
	<line class="st1" x1="0.3" y1="380.2" x2="456.2" y2="380.2"/>
	<line class="st1" x1="0.3" y1="399.2" x2="456.2" y2="399.2"/>
	<line class="st1" x1="0.3" y1="418.2" x2="456.2" y2="418.2"/>
	<line class="st1" x1="0.3" y1="437.2" x2="456.2" y2="437.2"/>
	<line class="st1" x1="0.3" y1="38.2" x2="456.2" y2="38.2"/>
	<line class="st1" x1="0.3" y1="114.3" x2="456.2" y2="114.3"/>
	<line class="st1" x1="0.3" y1="152.2" x2="456.2" y2="152.2"/>
	<line class="st1" x1="0.3" y1="190.2" x2="456.2" y2="190.2"/>
	<line class="st1" x1="0.3" y1="228.2" x2="456.2" y2="228.2"/>
	<line class="st1" x1="0.3" y1="266.2" x2="456.2" y2="266.2"/>
	<line class="st1" x1="0.3" y1="304.2" x2="456.2" y2="304.2"/>
	<line class="st1" x1="0.3" y1="342.2" x2="456.2" y2="342.2"/>
	<line class="st1" x1="0.3" y1="380.2" x2="456.2" y2="380.2"/>
	<line class="st1" x1="0.3" y1="418.2" x2="456.2" y2="418.2"/>
	<line class="st1" x1="0.3" y1="456.2" x2="456.2" y2="456.2"/>
	<line class="st1" x1="0.3" y1="0.2" x2="456.2" y2="456.2"/>
	<line class="st1" x1="0.3" y1="38.2" x2="418.2" y2="456.2"/>
	<line class="st1" x1="0.3" y1="76.2" x2="380.2" y2="456.2"/>
	<line class="st1" x1="0.3" y1="114.3" x2="342.2" y2="456.2"/>
	<line class="st1" x1="0.3" y1="152.2" x2="304.2" y2="456.2"/>
	<line class="st1" x1="0.3" y1="190.2" x2="266.2" y2="456.2"/>
	<line class="st1" x1="0.3" y1="228.2" x2="228.2" y2="456.2"/>
	<line class="st1" x1="0.3" y1="266.2" x2="190.3" y2="456.2"/>
	<line class="st1" x1="0.3" y1="304.2" x2="152.3" y2="456.2"/>
	<line class="st1" x1="0.3" y1="342.2" x2="114.3" y2="456.2"/>
	<line class="st1" x1="0.3" y1="380.2" x2="76.3" y2="456.2"/>
	<line class="st1" x1="0.3" y1="418.2" x2="38.3" y2="456.2"/>
	<line class="st1" x1="456.2" y1="418.2" x2="38.3" y2="0.2"/>
	<line class="st1" x1="456.2" y1="380.2" x2="76.3" y2="0.2"/>
	<line class="st1" x1="456.2" y1="342.2" x2="114.3" y2="0.2"/>
	<line class="st1" x1="456.2" y1="304.2" x2="152.3" y2="0.2"/>
	<line class="st1" x1="456.2" y1="266.2" x2="190.3" y2="0.2"/>
	<line class="st1" x1="456.2" y1="228.2" x2="228.2" y2="0.2"/>
	<line class="st1" x1="456.2" y1="190.2" x2="266.2" y2="0.2"/>
	<line class="st1" x1="456.2" y1="152.2" x2="304.2" y2="0.2"/>
	<line class="st1" x1="456.2" y1="114.3" x2="342.2" y2="0.2"/>
	<line class="st1" x1="456.2" y1="76.2" x2="380.2" y2="0.2"/>
	<line class="st1" x1="456.2" y1="38.2" x2="418.2" y2="0.2"/>
	<line class="st1" x1="456.2" y1="0.2" x2="0.3" y2="456.2"/>
	<line class="st1" x1="418.2" y1="0.2" x2="0.3" y2="418.2"/>
	<line class="st1" x1="380.2" y1="0.2" x2="0.3" y2="380.2"/>
	<line class="st1" x1="342.2" y1="0.2" x2="0.3" y2="342.2"/>
	<line class="st1" x1="304.2" y1="0.2" x2="0.3" y2="304.2"/>
	<line class="st1" x1="266.2" y1="0.2" x2="0.3" y2="266.2"/>
	<line class="st1" x1="228.2" y1="0.2" x2="0.3" y2="228.2"/>
	<line class="st1" x1="190.3" y1="0.2" x2="0.3" y2="190.2"/>
	<line class="st1" x1="152.3" y1="0.2" x2="0.3" y2="152.2"/>
	<line class="st1" x1="114.3" y1="0.2" x2="0.3" y2="114.3"/>
	<line class="st1" x1="76.3" y1="0.2" x2="0.3" y2="76.2"/>
	<line class="st1" x1="38.3" y1="0.2" x2="0.3" y2="38.2"/>
	<line class="st1" x1="38.3" y1="456.2" x2="456.2" y2="38.2"/>
	<line class="st1" x1="76.3" y1="456.2" x2="456.2" y2="76.2"/>
	<line class="st1" x1="114.3" y1="456.2" x2="456.2" y2="114.3"/>
	<line class="st1" x1="152.3" y1="456.2" x2="456.2" y2="152.2"/>
	<line class="st1" x1="190.3" y1="456.2" x2="456.2" y2="190.2"/>
	<line class="st1" x1="228.2" y1="456.2" x2="456.2" y2="228.2"/>
	<line class="st1" x1="266.2" y1="456.2" x2="456.2" y2="266.2"/>
	<line class="st1" x1="304.2" y1="456.2" x2="456.2" y2="304.2"/>
	<line class="st1" x1="342.2" y1="456.2" x2="456.2" y2="342.2"/>
	<line class="st1" x1="380.2" y1="456.2" x2="456.2" y2="380.2"/>
	<line class="st1" x1="418.2" y1="456.2" x2="456.2" y2="418.2"/>
	<circle class="st2" cx="228.2" cy="228.2" r="228"/>
</g>
<g>
	<g>
		<path d="M190.8,385.6c-0.8,0-1.6-0.1-2.4-0.3c-7.6-1.9-15.1-4.4-22.2-7.4c-5.1-2.1-7.5-8-5.4-13.1c1.6-3.8,5.2-6.2,9.2-6.2
			c1.3,0,2.6,0.3,3.8,0.8c6.3,2.6,12.9,4.8,19.5,6.5c2.6,0.6,4.8,2.3,6.1,4.6s1.8,5,1.1,7.6C199.4,382.5,195.4,385.6,190.8,385.6z
			 M134.7,358.1c-2.2,0-4.4-0.7-6.1-2.1c-0.3-0.2-0.6-0.5-0.8-0.7c-6.1-4.8-11.9-10.1-17.3-15.8c-1.8-1.9-2.8-4.5-2.7-7.1
			c0.1-2.7,1.2-5.1,3.1-7c1.9-1.8,4.3-2.7,6.9-2.7c2.8,0,5.4,1.1,7.3,3.1c4.7,5,9.8,9.6,15.1,13.9c0.2,0.2,0.5,0.4,0.7,0.6
			c2.1,1.6,3.4,4,3.8,6.7c0.3,2.6-0.4,5.3-2.1,7.4C140.6,356.7,137.8,358.1,134.7,358.1z M93.9,309.4c-3.7,0-7.1-2-8.8-5.3
			c-0.2-0.3-0.3-0.6-0.5-0.9c-3.6-6.9-6.8-14.1-9.3-21.5c-1.8-5.2,0.9-10.9,6.1-12.7c1.1-0.4,2.2-0.6,3.3-0.6c4.2,0,8,2.7,9.4,6.7
			c2.2,6.4,5,12.8,8.2,18.8c0.1,0.3,0.3,0.5,0.4,0.8c2.6,4.9,0.7,10.9-4.1,13.5C97.1,309,95.5,309.4,93.9,309.4z M76.5,248.4
			c-5.2,0-9.6-4.1-10-9.4l0-0.1c0-0.3,0-0.6-0.1-0.9c-0.2-3.2-0.3-6.5-0.3-9.7c0-4.6,0.2-9.2,0.6-13.7c0.2-2.5,1.3-4.8,3.2-6.5
			c2.1-1.9,4.8-2.8,7.6-2.6c2.7,0.2,5.1,1.5,6.8,3.5c1.7,2,2.6,4.6,2.3,7.3c-0.3,4-0.5,8-0.5,12c0,2.8,0.1,5.7,0.2,8.5
			c0,0.3,0,0.6,0.1,0.9l0,0.1c0.2,2.7-0.7,5.2-2.5,7.2c-1.8,2-4.2,3.2-6.9,3.4C76.9,248.4,76.7,248.4,76.5,248.4z M379.2,221.5
			c-5.1,0-9.4-3.8-9.9-8.9c-0.8-6.8-2-13.6-3.7-20.2c-0.1-0.3-0.2-0.6-0.2-0.9c-0.7-2.6-0.3-5.3,1-7.6c1.3-2.3,3.5-4,6.1-4.6
			c0.8-0.2,1.7-0.3,2.6-0.3c4.5,0,8.5,3,9.6,7.4c0.1,0.4,0.2,0.7,0.3,1c2,7.5,3.4,15.3,4.2,23c0.3,2.7-0.5,5.3-2.1,7.4
			c-1.7,2.1-4,3.4-6.7,3.7C380,221.4,379.6,221.5,379.2,221.5z M85.6,185.5c-1.2,0-2.3-0.2-3.5-0.6c-2.5-0.9-4.5-2.8-5.6-5.2
			c-1.1-2.4-1.2-5.1-0.3-7.6c0.1-0.3,0.2-0.6,0.3-0.9c0,0,0-0.1,0.1-0.1c2.8-7.3,6.1-14.5,9.9-21.3c1.8-3.2,5.1-5.1,8.8-5.1
			c1.7,0,3.4,0.4,4.8,1.2c4.8,2.7,6.6,8.8,3.9,13.6c-3.3,6-6.2,12.2-8.6,18.6l-0.1,0.3c-0.1,0.2-0.2,0.4-0.2,0.6
			C93.5,182.9,89.7,185.5,85.6,185.5z M359.2,161.2c-3.5,0-6.8-1.9-8.6-4.9c-3.5-5.9-7.4-11.6-11.7-16.9c-0.2-0.2-0.4-0.5-0.6-0.7
			c-3.5-4.3-2.8-10.6,1.4-14.1c1.8-1.4,4-2.2,6.3-2.2c3,0,5.9,1.4,7.8,3.7c0.1,0.1,0.2,0.2,0.3,0.3c0.1,0.2,0.3,0.3,0.4,0.5
			c4.9,6.1,9.4,12.6,13.3,19.3c1.4,2.3,1.7,5,1.1,7.6c-0.7,2.6-2.3,4.8-4.6,6.1C362.8,160.7,361,161.2,359.2,161.2z M119.6,131.9
			c-2.6,0-5.1-1-7-2.9c-3.9-3.9-4-10.2-0.1-14.1l0.8-0.8c5.5-5.5,11.4-10.7,17.6-15.4c1.8-1.3,3.8-2,6-2c3.2,0,6.1,1.5,8,4
			c3.3,4.4,2.4,10.7-2,14c-5.5,4.1-10.7,8.6-15.5,13.5c-0.1,0.1-0.3,0.3-0.4,0.4l-0.2,0.2C124.9,130.8,122.3,131.9,119.6,131.9z
			 M316.3,114.4c-2.1,0-4.1-0.6-5.8-1.9c-5.6-4-11.5-7.6-17.5-10.7c-0.3-0.1-0.6-0.3-0.8-0.4c-4.9-2.5-6.9-8.5-4.4-13.4
			c1.7-3.4,5.1-5.5,8.9-5.5c1.6,0,3.1,0.4,4.5,1.1c0.2,0.1,0.4,0.2,0.6,0.3c0.1,0.1,0.2,0.1,0.3,0.2c6.9,3.6,13.6,7.7,20,12.2
			c4.5,3.2,5.5,9.5,2.3,13.9C322.6,112.8,319.5,114.4,316.3,114.4z M172.5,96.8c-4.1,0-7.8-2.5-9.3-6.3c-1-2.5-0.9-5.2,0.1-7.7
			c1.1-2.4,3-4.3,5.5-5.3c0.3-0.1,0.5-0.2,0.8-0.3l0.2-0.1c7.3-2.8,14.8-5.1,22.4-6.8c2.9-0.7,6.1,0.1,8.4,1.9
			c1.8,1.4,3.1,3.4,3.6,5.6c0.6,2.6,0.1,5.3-1.3,7.5c-1.4,2.3-3.6,3.8-6.2,4.4c-6.7,1.5-13.3,3.5-19.6,6c0,0,0,0,0,0
			c-0.1,0-0.1,0-0.2,0.1c-0.2,0.1-0.5,0.2-0.7,0.3C175,96.5,173.8,96.8,172.5,96.8z M258,89.2c-0.6,0-1.3-0.1-2-0.2
			c-6.7-1.3-13.5-2.2-20.4-2.5c-0.3,0-0.6,0-0.9-0.1h0c-2.7-0.1-5.1-1.3-6.9-3.2s-2.7-4.5-2.6-7.2c0.2-5.5,4.9-9.8,10.5-9.5l0.4,0
			c0.2,0,0.5,0,0.7,0h0h0c7.8,0.4,15.6,1.4,23.2,2.9c2.6,0.5,4.9,2,6.4,4.2c1.5,2.2,2,4.9,1.5,7.5C266.9,85.8,262.7,89.2,258,89.2z"
			/>
	</g>
	<g>
		<path d="M380.2,238.2c-2.6,0-5.1-1-7.1-2.9c-3.9-3.9-3.9-10.2,0-14.1l38-38c3.9-3.9,10.2-3.9,14.1,0c3.9,3.9,3.9,10.2,0,14.1
			l-38,38C385.3,237.3,382.7,238.2,380.2,238.2z"/>
	</g>
	<g>
		<path d="M228.2,428.2c-26.5,0-48-21.5-48-48s21.5-48,48-48s48,21.5,48,48S254.6,428.2,228.2,428.2z M228.2,352.2
			c-15.4,0-28,12.6-28,28s12.6,28,28,28s28-12.6,28-28S243.6,352.2,228.2,352.2z"/>
	</g>
	<g>
		<path d="M380.1,238.3c-1.6,0-3.2-0.4-4.7-1.2L330.3,213c-4.9-2.6-6.7-8.7-4.1-13.5s8.7-6.7,13.5-4.1l45.2,24.1
			c4.9,2.6,6.7,8.7,4.1,13.5C387.2,236.4,383.7,238.3,380.1,238.3z"/>
	</g>
</g>
</svg>
